<svg viewBox="0 0 66.0017 66" xmlns="http://www.w3.org/2000/svg" xmlns:xlink="http://www.w3.org/1999/xlink" width="66.001709" height="66.000000" fill="none" customFrame="#000000">
	<path id="Vector" d="M15.2322 45.7545C11.7319 45.758 8.35316 44.5956 5.74339 42.4901C3.13363 40.3846 1.4763 37.484 1.08893 34.344C0.701565 31.204 1.61139 28.0453 3.64411 25.4732C5.67683 22.9011 8.6895 21.0964 12.1049 20.4049C11.1167 16.2449 11.9998 11.901 14.56 8.32875C17.1201 4.7565 21.1476 2.24853 25.7564 1.35657C30.3652 0.464604 35.1778 1.26171 39.1355 3.57252C43.0932 5.88334 45.8717 9.51858 46.8599 13.6785L47.2153 13.6785C51.6217 13.6745 55.8725 15.1485 59.1426 17.8143C62.4127 20.4801 64.4688 24.1476 64.9116 28.1047C65.3544 32.0618 64.1525 36.0263 61.5391 39.2285C58.9257 42.4307 55.0872 44.6422 50.769 45.4337M43.6616 36.1317L33.0006 26.5089L22.3395 36.1317M33.0006 26.5089L33.0006 65" fill-rule="nonzero" stroke="rgb(0,0,0)" stroke-linecap="round" stroke-linejoin="round" stroke-width="2" />
</svg>
