<?xml version="1.0" encoding="UTF-8"?>
<svg id="_Слой_1" data-name="Слой 1" xmlns="http://www.w3.org/2000/svg" version="1.1" viewBox="0 0 2000 2000">
  <defs>
    <style>
      .cls-1 {
        fill: #000;
      }

      .cls-1, .cls-2 {
        stroke-width: 0px;
      }

      .cls-2 {
        fill: #fff;
      }
    </style>
  </defs>
  <rect class="cls-1" width="2000" height="2000"/>
  <g>
    <g>
      <path class="cls-2" d="M546.17,889.09c-16.34,0-32.15,6.81-43.37,18.69l-112.91,119.55h81.1l76.04-80.51v104.91s-65.32,0-65.32,0l-55.63,58.96h65.02v.21h114.89v-221.82h-59.82Z"/>
      <polygon class="cls-2" points="448.16 1051.74 366.58 1051.74 366.58 889.09 307.62 889.09 307.62 1110.7 392.53 1110.7 448.16 1051.74"/>
    </g>
    <g>
      <polygon class="cls-2" points="728.72 920.93 707.81 920.93 707.81 1078.69 724.6 1078.69 728.72 1078.69 803.48 1078.69 803.48 1061.68 728.72 1061.68 728.72 920.93"/>
      <rect class="cls-2" x="828.84" y="920.93" width="20.91" height="157.76"/>
      <polygon class="cls-2" points="1026.79 920.93 1017.8 920.93 966.23 1049.54 914.54 920.93 905.55 920.93 894.28 920.93 887.67 920.93 887.67 1078.69 908.47 1078.69 908.47 1017.14 906.46 950.99 958.21 1078.69 974.03 1078.69 1025.88 951.17 1023.87 1017.14 1023.87 1078.69 1044.67 1078.69 1044.67 920.93 1038.17 920.93 1026.79 920.93"/>
      <path class="cls-2" d="M1142.08,920.93h-13.76l-60.13,157.76h21.34l14.99-41.28h65.98l15.03,41.28h21.45l-60.35-157.76h-4.55ZM1110.74,1020.29l26.74-73.61,26.79,73.61h-53.53Z"/>
      <path class="cls-2" d="M1316.53,1027.65c0,8.23-1.52,15.02-4.55,20.37-3.03,5.35-7.28,9.32-12.73,11.92-5.46,2.6-11.83,3.9-19.13,3.9s-13.56-1.3-19.01-3.9c-5.45-2.6-9.7-6.57-12.73-11.92-3.03-5.35-4.55-12.14-4.55-20.37v-106.73h-20.7v106.73c0,11.85,2.51,21.71,7.53,29.58,5.02,7.88,11.85,13.78,20.48,17.72,8.63,3.94,18.29,5.9,28.98,5.9s19.63-1.97,28.33-5.9c8.7-3.94,15.69-9.84,20.97-17.72,5.27-7.87,7.91-17.73,7.91-29.58v-106.73h-20.8v106.73Z"/>
      <path class="cls-2" d="M1465.13,940.92c-6.17-6.46-13.53-11.41-22.05-14.84-8.52-3.43-17.95-5.15-28.28-5.15h-44.64v157.76h42.69c10.98,0,20.86-1.71,29.63-5.15,8.78-3.43,16.29-8.36,22.54-14.79,6.25-6.43,11.03-14.21,14.36-23.35,3.32-9.14,4.98-19.41,4.98-30.83v-9.43c0-11.41-1.66-21.69-4.98-30.83-3.32-9.14-8.07-16.94-14.25-23.4ZM1463.67,1004.58c0,11.49-1.9,21.51-5.69,30.07-3.79,8.56-9.44,15.21-16.96,19.94-7.51,4.73-16.9,7.1-28.17,7.1h-21.78v-123.63h23.73c7.8,0,14.72,1.26,20.75,3.79,6.03,2.53,11.14,6.23,15.33,11.11,4.19,4.88,7.37,10.83,9.54,17.88,2.17,7.04,3.25,15.08,3.25,24.11v9.64Z"/>
      <rect class="cls-2" x="1517.3" y="920.93" width="20.91" height="157.76"/>
      <path class="cls-2" d="M1693.11,963.02c-3-9.35-7.3-17.33-12.89-23.95-5.6-6.61-12.28-11.65-20.05-15.12-7.77-3.47-16.45-5.2-26.06-5.2s-17.86,1.73-25.63,5.2c-7.76,3.47-14.46,8.51-20.1,15.12-5.63,6.61-9.99,14.59-13.06,23.95-3.07,9.36-4.61,19.96-4.61,31.8v9.97c0,11.85,1.55,22.46,4.66,31.85,3.11,9.39,7.49,17.37,13.16,23.95,5.67,6.57,12.39,11.6,20.15,15.06,7.76,3.47,16.31,5.2,25.63,5.2s18.29-1.73,26.06-5.2c7.76-3.47,14.43-8.49,19.99-15.06,5.56-6.57,9.82-14.55,12.79-23.95,2.96-9.39,4.44-20.01,4.44-31.85v-9.97c0-11.85-1.5-22.45-4.5-31.8ZM1676.91,1004.79c0,9.46-.94,17.82-2.82,25.08s-4.64,13.36-8.29,18.31c-3.65,4.95-8.11,8.69-13.38,11.21-5.27,2.53-11.31,3.79-18.09,3.79s-12.37-1.26-17.61-3.79c-5.24-2.53-9.75-6.27-13.54-11.21-3.79-4.95-6.7-11.05-8.72-18.31-2.02-7.26-3.03-15.62-3.03-25.08v-10.19c0-9.39,1.01-17.7,3.03-24.92,2.02-7.22,4.89-13.29,8.61-18.2,3.72-4.91,8.2-8.63,13.44-11.16,5.24-2.53,11.11-3.79,17.61-3.79s12.73,1.26,18.04,3.79c5.31,2.53,9.81,6.25,13.49,11.16,3.68,4.91,6.48,10.98,8.4,18.2,1.91,7.22,2.87,15.53,2.87,24.92v10.19Z"/>
    </g>
  </g>
</svg>